<svg width="185" height="185" viewBox="0 0 185 185" fill="none" xmlns="http://www.w3.org/2000/svg">
<circle cx="92.5" cy="92.5" r="92.5" fill="white"/>
<g clip-path="url(#clip0)">
<path d="M152.333 33.3333C136 17 116 9 93 9C69.6667 9 50 17 33.6667 33.3333C17.3333 49.6667 9 69.6667 9 92.6667C9 116 17.3333 136 33.6667 152.333C50 168.667 69.6667 177 93 177C114 177 132 170 147.667 156.667C148.333 156.333 148.667 156 148.667 155.667C150 154.667 151 153.333 152.333 152.333C168.667 136 177 116 177 92.6667C177 69.6667 168.667 49.6667 152.333 33.3333ZM93 13.3333C114.667 13.3333 133.667 21 149.333 36.6667C164.667 52.3333 172.333 71 172.333 92.6667C172.333 114.667 164.667 133.333 149.333 149C133.667 164.333 114.667 172.333 93 172.333C71 172.333 52.3333 164.333 37 149C21.3333 133.333 13.6667 114.667 13.6667 92.6667C13.6667 71 21.3333 52.3333 37 36.6667C52.3333 21 71 13.3333 93 13.3333Z" fill="#204EE9"/>
<path d="M147 39C132 24 114 16.6666 93 16.6666C72 16.6666 54 24 39.3333 39C24.3333 53.6666 16.6666 71.6666 16.6666 93C16.6666 114 24.3333 132 39.3333 146.667C54 161.667 72 169 93 169C114 169 132 161.667 147 146.667C161.667 132 169.333 114 169.333 93C169.333 71.6666 161.667 53.6666 147 39ZM93 21.3333C112.667 21.3333 129.333 28.3333 143.667 42.3333C157.333 56 164.333 73 164.333 92.6666C164.333 112.667 157.333 129.333 143.667 143.333C129.333 157.333 112.667 164.333 93 164.333C73 164.333 56.3333 157.333 42.6666 143.333C28.6666 129.333 21.3333 112.667 21.3333 92.6666C21.3333 73 28.6666 56 42.6666 42.3333C56.3333 28.3333 73 21.3333 93 21.3333Z" fill="#204EE9"/>
<path d="M94.3333 44.3333H79.3333V93.3333L52 46C26 70.6666 22.6666 99.3333 42.6666 131.333L62.6666 131C45 111 40.6666 92.3333 49.3333 74.3333L94.3333 151.667V98.6666H99.6666V132H113.667V98.6666H140.333C140.667 109.667 134.667 121 122.667 132L140.333 131.333C153.333 117.667 157.667 101 153.667 81.6666C147 51.6666 129.333 35 99.6666 31.6666V84.6666H94.3333V44.3333ZM140 84.6666H113.667V50.6666C126.667 55.6666 135.333 66.6666 140 84.6666Z" fill="#204EE9"/>
<circle cx="167" cy="169" r="7.5" stroke="#204EE9"/>
<path d="M167.002 169.713H165.35V173H163.867V164.469H166.867C167.852 164.469 168.611 164.689 169.146 165.131C169.682 165.572 169.949 166.211 169.949 167.047C169.949 167.617 169.811 168.096 169.533 168.482C169.26 168.865 168.877 169.16 168.385 169.367L170.301 172.924V173H168.713L167.002 169.713ZM165.35 168.523H166.873C167.373 168.523 167.764 168.398 168.045 168.148C168.326 167.895 168.467 167.549 168.467 167.111C168.467 166.654 168.336 166.301 168.074 166.051C167.816 165.801 167.43 165.672 166.914 165.664H165.35V168.523Z" fill="#204EE9"/>
</g>
<defs>
<clipPath id="clip0">
<rect width="168" height="168" fill="white" transform="translate(9 9)"/>
</clipPath>
</defs>
</svg>
