<svg width="50" height="50" viewBox="0 0 50 50" fill="none" xmlns="http://www.w3.org/2000/svg">
<path d="M42.6587 7.24206C37.7976 2.38095 31.8452 0 25 0C18.0556 0 12.2024 2.38095 7.34127 7.24206C2.48016 12.1032 0 18.0556 0 24.9008C0 31.8452 2.48016 37.7976 7.34127 42.6587C12.2024 47.5198 18.0556 50 25 50C31.25 50 36.6071 47.9167 41.2698 43.9484C41.4683 43.8492 41.5675 43.75 41.5675 43.6508C41.9643 43.3532 42.2619 42.9563 42.6587 42.6587C47.5198 37.7976 50 31.8452 50 24.9008C50 18.0556 47.5198 12.1032 42.6587 7.24206ZM25 1.28968C31.4484 1.28968 37.1032 3.57143 41.7659 8.23413C46.3294 12.8968 48.6111 18.4524 48.6111 24.9008C48.6111 31.4484 46.3294 37.004 41.7659 41.6667C37.1032 46.2302 31.4484 48.6111 25 48.6111C18.4524 48.6111 12.8968 46.2302 8.33333 41.6667C3.67063 37.004 1.38889 31.4484 1.38889 24.9008C1.38889 18.4524 3.67063 12.8968 8.33333 8.23413C12.8968 3.57143 18.4524 1.28968 25 1.28968Z" fill="white"/>
<path d="M41.0714 8.92856C36.6071 4.46428 31.25 2.28174 25 2.28174C18.75 2.28174 13.3929 4.46428 9.02777 8.92856C4.56348 13.2936 2.28174 18.6508 2.28174 25C2.28174 31.25 4.56348 36.6071 9.02777 40.9722C13.3929 45.4365 18.75 47.619 25 47.619C31.25 47.619 36.6071 45.4365 41.0714 40.9722C45.4365 36.6071 47.7183 31.25 47.7183 25C47.7183 18.6508 45.4365 13.2936 41.0714 8.92856ZM25 3.67063C30.8532 3.67063 35.8135 5.75396 40.0794 9.92063C44.1468 13.9881 46.2302 19.0476 46.2302 24.9008C46.2302 30.8532 44.1468 35.8135 40.0794 39.9802C35.8135 44.1468 30.8532 46.2302 25 46.2302C19.0476 46.2302 14.0873 44.1468 10.0198 39.9802C5.85317 35.8135 3.67063 30.8532 3.67063 24.9008C3.67063 19.0476 5.85317 13.9881 10.0198 9.92063C14.0873 5.75396 19.0476 3.67063 25 3.67063Z" fill="white"/>
<path d="M25.3968 10.5159H20.9325V25.0992L12.7976 11.0119C5.05947 18.3532 4.0674 26.8849 10.0198 36.4087L15.9722 36.3095C10.7142 30.3571 9.42455 24.8016 12.0039 19.4444L25.3968 42.4603V26.6865H26.9841V36.6071H31.1507V26.6865H39.0872C39.1865 29.9603 37.4007 33.3333 33.8293 36.6071L39.0872 36.4087C42.9563 32.3413 44.246 27.381 43.0555 21.627C41.0714 12.6984 35.8134 7.7381 26.9841 6.74603V22.5198H25.3968V10.5159ZM38.988 22.5198H31.1507V12.4008C35.0198 13.8889 37.5992 17.1627 38.988 22.5198Z" fill="white"/>
<path d="M49.3048 47.6191C49.3048 48.8789 48.2835 49.9002 47.0237 49.9002C45.7638 49.9002 44.7425 48.8789 44.7425 47.6191C44.7425 46.3592 45.7638 45.3379 47.0237 45.3379C48.2835 45.3379 49.3048 46.3592 49.3048 47.6191Z" stroke="white" stroke-width="0.199549"/>
<path d="M47.0243 47.7573H46.5325V48.7356H46.0913V46.1966H46.9842C47.2771 46.1966 47.5033 46.2622 47.6625 46.3936C47.8218 46.525 47.9014 46.7151 47.9014 46.9639C47.9014 47.1336 47.8602 47.276 47.7776 47.3911C47.6962 47.505 47.5823 47.5928 47.4358 47.6544L48.0061 48.713V48.7356H47.5335L47.0243 47.7573ZM46.5325 47.4033H46.9859C47.1347 47.4033 47.251 47.3661 47.3347 47.2917C47.4184 47.2161 47.4602 47.1133 47.4602 46.983C47.4602 46.847 47.4213 46.7418 47.3434 46.6674C47.2667 46.593 47.1516 46.5546 46.9981 46.5523H46.5325V47.4033Z" fill="white"/>
</svg>
