<svg width="36" height="36" viewBox="0 0 36 36" fill="none" xmlns="http://www.w3.org/2000/svg">
<path d="M0 36L3.096 26.7126C1.52503 24.0703 0.62069 20.9868 0.62069 17.6897C0.62069 7.92 8.54069 0 18.3103 0C28.08 0 36 7.92 36 17.6897C36 27.4593 28.08 35.3793 18.3103 35.3793C15.3379 35.3793 12.5386 34.6426 10.08 33.3478L0 36Z" fill="#2CB742"/>
<path d="M27.8327 22.7695C27.1381 21.4569 24.5768 19.9559 24.5768 19.9559C23.9973 19.6256 23.298 19.5886 22.9676 20.1776C22.9676 20.1776 22.1353 21.1756 21.9237 21.3192C20.9568 21.9741 20.0611 21.9488 19.157 21.0447L17.0559 18.9437L14.9549 16.8426C14.0508 15.9386 14.0254 15.0429 14.6804 14.0761C14.824 13.8644 15.822 13.0321 15.822 13.0321C16.411 12.7012 16.3741 12.0025 16.0437 11.423C16.0437 11.423 14.5427 8.8617 13.2301 8.16715C12.6717 7.8716 11.9861 7.97505 11.5396 8.42154L10.6118 9.34936C7.66833 12.2927 9.11762 15.6156 12.061 18.5589L14.7511 21.249L17.4412 23.939C20.3847 26.8824 23.7075 28.3316 26.651 25.3883L27.5788 24.4605C28.0253 24.0129 28.1282 23.3273 27.8327 22.7695Z" fill="white"/>
</svg>
