<svg width="80" height="80" viewBox="0 0 80 80" fill="none" xmlns="http://www.w3.org/2000/svg">
<circle cx="40" cy="40" r="40" fill="#EE3124"/>
<path d="M62.0382 28.9961C61.5102 27.0297 59.9499 25.4813 57.9714 24.9548C54.3855 24 40 24 40 24C40 24 25.6145 24 22.0286 24.9548C20.0501 25.4813 18.4898 27.0297 17.9618 28.9961C17 32.5626 17 40 17 40C17 40 17 47.4374 17.9618 51.0039C18.4898 52.9703 20.0501 54.5187 22.0286 55.0452C25.6145 56 40 56 40 56C40 56 54.3855 56 57.9714 55.0452C59.9499 54.5187 61.5102 52.9703 62.0382 51.0039C63 47.4374 63 40 63 40C63 40 63 32.5626 62.0382 28.9961Z" fill="white"/>
<path d="M35.2954 46.7536V33.2465L47.3181 40L35.2954 46.7536Z" fill="#EE3124"/>
</svg>
